<svg id="Capa_1" enable-background="new 0 0 512 512" height="512" viewBox="0 0 512 512" width="512" xmlns="http://www.w3.org/2000/svg"><g><g><path d="m479.049 511.999h-446.103c-11.845 0-21.447-9.602-21.447-21.447v-469.103c0-11.845 9.602-21.447 21.447-21.447h446.103c11.845 0 21.447 9.602 21.447 21.447v469.103c0 11.844-9.602 21.447-21.447 21.447z" fill="#fe9738"/><path d="m500.501 21.453v469.094c0 11.847-9.606 21.453-21.453 21.453h-27.144c11.847 0 21.443-9.606 21.443-21.453v-469.094c0-11.847-9.596-21.453-21.443-21.453h27.144c11.848 0 21.453 9.606 21.453 21.453z" fill="#fe860a"/><path d="m434.29 465.134h-356.585c-11.845 0-21.447-9.602-21.447-21.447v-375.374c0-11.845 9.602-21.447 21.447-21.447h356.585c11.845 0 21.447 9.602 21.447 21.447v375.374c0 11.845-9.602 21.447-21.447 21.447z" fill="#96450f"/><path d="m455.737 68.313v375.377c0 11.852-9.607 21.448-21.448 21.448h-27.152c11.841 0 21.448-9.596 21.448-21.448v-375.377c0-11.852-9.607-21.448-21.448-21.448h27.152c11.841.001 21.448 9.597 21.448 21.448z" fill="#7f3808"/></g><g fill="#fe860a"><path d="m241.883 151.222c-.072-.19-.146-.378-.223-.565-3.903-9.489-13.05-15.616-23.308-15.616-.008 0-.018 0-.026 0-10.269.011-19.416 6.158-23.303 15.663-.063.155-.125.311-.185.468l-75.324 197.772c-4.06 10.662 1.291 22.597 11.952 26.658 10.663 4.059 22.597-1.291 26.658-11.952l13.692-35.951h92.507l13.545 35.892c3.122 8.273 10.982 13.37 19.331 13.369 2.423 0 4.889-.43 7.29-1.336 10.674-4.028 16.062-15.947 12.033-26.621zm-54.332 135.161 30.73-80.685 30.449 80.685z"/><path d="m373.182 213.755c-11.409 0-20.658 9.249-20.658 20.658v121.884c0 11.409 9.249 20.658 20.658 20.658s20.658-9.249 20.658-20.658v-121.884c0-11.41-9.249-20.658-20.658-20.658z"/><circle cx="373.182" cy="165.638" r="19.116"/></g><path d="m316.524 349.001-74.646-197.776c-.062-.196-.145-.382-.217-.568-3.904-9.492-13.056-15.617-23.312-15.617-.01 0-.01 0-.021 0-3.408.01-6.703.682-9.719 1.942 6.032 2.52 10.959 7.354 13.562 13.675.083.186.155.372.227.568l74.636 197.776c3.708 9.823-.547 20.699-9.575 25.512 2.975 1.591 6.311 2.448 9.74 2.448 2.427 0 4.886-.434 7.292-1.332 10.67-4.029 16.062-15.948 12.033-26.628z" fill="#fe7701"/><path d="m393.836 234.413v121.88c0 11.413-9.244 20.658-20.658 20.658-3.522 0-6.838-.878-9.74-2.448 6.497-3.47 10.918-10.318 10.918-18.21v-121.88c0-7.891-4.421-14.739-10.918-18.21 2.902-1.57 6.218-2.448 9.74-2.448 11.413 0 20.658 9.244 20.658 20.658z" fill="#fe7701"/><path d="m392.297 165.633c0 10.566-8.552 19.119-19.119 19.119-3.563 0-6.889-.971-9.74-2.665 5.619-3.326 9.379-9.451 9.379-16.454s-3.76-13.118-9.379-16.443c2.851-1.694 6.177-2.665 9.74-2.665 10.566 0 19.119 8.552 19.119 19.108z" fill="#fe7701"/></g></svg>