<svg id="color" enable-background="new 0 0 24 24" height="512" viewBox="0 0 24 24" width="512" xmlns="http://www.w3.org/2000/svg"><path d="m5 10.5v3.5h1c.99 0 1.87.49 2.42 1.24.8-.76 1.88-1.24 3.08-1.24h1c1.2 0 2.28.48 3.08 1.24.55-.75 1.43-1.24 2.42-1.24.35 0 .69.06 1 .18v-3.68z" fill="#ffc107"/><path d="m12 13c-.717 0-7-.07-7-2.5v-4h14v4c0 2.43-6.283 2.5-7 2.5z" fill="#ffd54f"/><path d="m12 9c-.717 0-7-.07-7-2.5v-4h14v4c0 2.43-6.283 2.5-7 2.5z" fill="#ffc107"/><path d="m12 5c-.717 0-7-.07-7-2.5 0-2.43 6.283-2.5 7-2.5s7 .07 7 2.5-6.283 2.5-7 2.5z" fill="#ffd54f"/><path d="m5 10.5v3.5h1c.99 0 1.87.49 2.42 1.24.8-.76 1.88-1.24 3.08-1.24h.5v-1c-.717 0-7-.07-7-2.5z" fill="#dea806"/><path d="m5 6.5v4c0 2.43 6.283 2.5 7 2.5v-4c-.717 0-7-.07-7-2.5z" fill="#deb945"/><path d="m5 2.5v4c0 2.43 6.283 2.5 7 2.5v-4c-.717 0-7-.07-7-2.5z" fill="#dea806"/><path d="m12 0c-.717 0-7 .07-7 2.5 0 2.43 6.283 2.5 7 2.5z" fill="#deb945"/><g fill="#2196f3"><path d="m15 18.5c0-1.378-1.121-2.5-2.5-2.5h-1c-1.379 0-2.5 1.122-2.5 2.5v3c0 1.378 1.121 2.5 2.5 2.5h1c.336 0 .656-.069.949-.189.168.114.356.189.551.189.256 0 .512-.098.707-.293.345-.345.367-.869.104-1.258.121-.293.189-.613.189-.949zm-4 3v-3c0-.276.225-.5.5-.5h1c.275 0 .5.224.5.5v2.155c-.384-.226-.878-.192-1.207.138s-.364.824-.138 1.207h-.155c-.275 0-.5-.224-.5-.5z"/><path d="m21 24h-3c-.553 0-1-.448-1-1v-6c0-.552.447-1 1-1s1 .448 1 1v5h2c.553 0 1 .448 1 1s-.447 1-1 1z"/><path d="m4.5 24h-1.5c-.553 0-1-.448-1-1s.447-1 1-1h1.5c.275 0 .5-.224.5-.5s-.225-.5-.5-.5c-1.379 0-2.5-1.122-2.5-2.5s1.121-2.5 2.5-2.5h1.5c.553 0 1 .448 1 1s-.447 1-1 1h-1.5c-.275 0-.5.224-.5.5s.225.5.5.5c1.379 0 2.5 1.122 2.5 2.5s-1.121 2.5-2.5 2.5z"/></g><path d="m15 20.063h-2v.593c-.162-.095-.344-.145-.525-.145-.247 0-.492.092-.683.282-.329.33-.364.824-.138 1.207h-.154c-.275 0-.5-.224-.5-.5v-1.437h-2v1.437c0 1.378 1.121 2.5 2.5 2.5h1c.336 0 .656-.069.949-.189.168.114.356.189.551.189.256 0 .512-.098.707-.293.345-.345.367-.869.104-1.258.121-.293.189-.613.189-.949z" fill="#1d83d4"/><path d="m19 20.063h-2v2.937c0 .552.447 1 1 1h3c.553 0 1-.448 1-1s-.447-1-1-1h-2z" fill="#1d83d4"/><path d="m6.544 20.063h-3.994c.458.571 1.162.937 1.95.937.275 0 .5.224.5.5s-.225.5-.5.5h-1.5c-.553 0-1 .448-1 1s.447 1 1 1h1.5c1.379 0 2.5-1.122 2.5-2.5 0-.535-.169-1.031-.456-1.437z" fill="#1d83d4"/></svg>