<svg id="Layer_1" data-name="Layer 1" xmlns="http://www.w3.org/2000/svg" viewBox="0 0 837.13 639.17"><defs><style>.cls-1{fill:#ea234c;}.cls-2{fill:#fff;}</style></defs><path class="cls-1" d="M873.94,714.43q-8.34,1.16-16.94,1.68V701.47Z" transform="translate(-199.69 -199.83)"/><path class="cls-1" d="M874,714.43c81.57-11.35,143.55-67.89,143.55-135.93,0-76.22-77.79-138-173.75-138q-7.46,0-14.75.5V199.83L727,272.55l-527.31,376h152.5L727,381.27V533.65A237.26,237.26,0,0,1,769,530c62.4,0,113,22.83,113,51s-50.58,51-113,51a237.26,237.26,0,0,1-42-3.65V729h5.85L876.67,839h160.15Zm-17,1.68V701.47l16.94,13Q865.6,715.59,857,716.11Z" transform="translate(-199.69 -199.83)"/><path class="cls-1" d="M873.94,714.43q-8.34,1.16-16.94,1.68V701.47Z" transform="translate(-199.69 -199.83)"/><polygon class="cls-2" points="178.96 448.67 511.31 209.63 511.31 533.86 416.31 576.74 416.31 368.94 305.48 448.67 178.96 448.67"/></svg>